<svg width="743" height="683" viewBox="0 0 743 683" fill="none" xmlns="http://www.w3.org/2000/svg">
<path d="M488.515 199.647L465.407 246.674L506.758 282.35L473.92 374.377V403.566L431.758 445.728V503.702L402.569 560.619V640.253L462.093 682.08V640.253L431.758 609.918V560.619L394.3 523.161V454.242L421.217 407.62V344.782L379.866 301.404L347.434 272.215L303.244 214.241M421.217 344.782L373.379 407.62V521.134L352.481 568.567V645.594L331.415 682.08M408.5 63.5L387.569 178.566L347.434 272.215M387.569 178.566L352.298 142.079M488.515 199.647L473.92 73.5655M488.515 199.647L525.001 49.6465M488.515 199.647L557.839 112.89M566.353 358.161L557.839 318.836L586.623 257.215L582.569 174.512M724.867 353.296L645.002 333.026L566.353 358.161M566.353 358.161L520.009 384.918L515.012 403.566M645.002 333.026L693.245 397.485M340.542 358.161L191.757 222.755M191.757 222.755L222.568 90.1871M191.757 222.755L62.0274 236.133M285.812 367.485L229.46 344.782L182.839 384.918L62.0274 408.837L22.703 374.377M352.481 620.459L319.46 649.24L300.5 682.08" stroke="#D9E5EA" stroke-width="1.13514"/>
<path d="M348.244 411.069L267.163 375.596L232.704 283.974M232.704 283.974L159.73 174.92M232.704 283.974L209.595 163.568M267.163 375.596L324.731 344.379M324.731 344.379L293.109 278.298L247.704 203.298L300.812 148.568L247.704 124.244M414.5 95.0546L385.542 142.082L360.001 182.217L397.704 213.028V267.352L362.839 302.623L324.731 344.379M324.731 344.379L348.244 371.542V411.069M247.704 124.244L184.055 115.325M247.704 124.244L266.758 74.3788M362.839 302.623V465.191M385.542 142.082L354.5 110.5M414.5 95.0546L463.5 33M414.5 95.0546V18.5M414.5 95.0546L344.5 29M266.758 74.3788H324.731M266.758 74.3788L216.893 51.6761M532.665 682.894L480.001 652.488V628.975L438.65 587.623V546.677L430.34 538.367L403.38 511.407V360.596L431.353 307.082M431.353 307.082L508.38 290.46L534.326 229.244L540.812 148.568M467.434 79.6491L475.137 142.082L467.434 203.298L431.353 307.082M540.812 148.568L518.11 92.2167M540.812 148.568L585.407 95.0546M540.812 148.568H597.975M467.434 203.298L435 159.5M430.34 538.367L438.65 523.975V491.542L412.299 465.191V445.326L454.461 371.542L513.245 344.379M589.867 682.894L581.353 675.16L508.38 633.029V599.38L450.001 541.002V445.326L454.461 411.677V371.542M513.245 344.379L613.785 294.92M513.245 344.379L561.893 392.623M613.785 294.92L635.677 244.65L653.11 190.325M613.785 294.92L661.218 278.298M661.218 278.298L684.732 244.65M661.218 278.298L713.11 290.46M561.893 392.623L635.677 405.19L682.299 409.245L713.11 381.271M653.11 328.569L606.488 354.109L561.893 392.623M561.893 392.623L489.326 408.434L450.001 445.326M606.488 354.109L653.11 365.461M362.839 465.191L348.244 450.596V411.069M362.839 465.191L387.163 489.515V538.569M362.839 465.191V478.974L341.773 515.461V557.421M428.515 682.894V628.975L387.163 587.623V538.569M221.053 682.894L237.163 666.784L290.514 652.488V628.975L324.731 609.22M387.163 538.569L369.325 569.465V652.488L351.771 682.894M341.773 557.421V599.38L324.731 609.22M341.773 557.421L324.731 574.463V609.22M284.19 373.163L174.73 358.569L142.703 315.19M142.703 315.19L181.622 270.596M142.703 315.19L128.109 256.406M142.703 315.19L81.4869 286.406M142.703 315.19L94.0545 333.839M94.0545 333.839V388.569M94.0545 333.839L48.649 394.65M94.0545 333.839L15.4057 358.569M94.0545 333.839L26.7571 286.406" stroke="#A2C0CC" stroke-width="1.13514"/>
<circle cx="15.8108" cy="15.8108" r="15.8108" transform="matrix(-0.994858 0.101279 0.101279 0.994858 660.657 317.215)" fill="#CCDADE"/>
<circle cx="15.8108" cy="15.8108" r="15.8108" transform="matrix(-0.994858 0.101279 0.101279 0.994858 578.765 341.541)" fill="#CCDADE"/>
<circle cx="15.8108" cy="15.8108" r="15.8108" transform="matrix(-0.994858 0.101279 0.101279 0.994858 488.472 356.832)" fill="#CCDADE"/>
<circle cx="15.8108" cy="15.8108" r="15.8108" transform="matrix(-0.994858 0.101279 0.101279 0.994858 524.215 267.619)" fill="#CCDADE"/>
<circle cx="15.8108" cy="15.8108" r="15.8108" transform="matrix(-0.994858 0.101279 0.101279 0.994858 704.723 380.771)" fill="#CCDADE"/>
<circle cx="15.8108" cy="15.8108" r="15.8108" transform="matrix(-0.994858 0.101279 0.101279 0.994858 577.136 302.623)" fill="#CCDADE"/>
<circle cx="15.8108" cy="15.8108" r="15.8108" transform="matrix(-0.994858 0.101279 0.101279 0.994858 506.12 184.693)" fill="#CCDADE"/>
<circle cx="15.8108" cy="15.8108" r="15.8108" transform="matrix(-0.994858 0.101279 0.101279 0.994858 433.04 327.814)" fill="#CCDADE"/>
<circle cx="15.8108" cy="15.8108" r="15.8108" transform="matrix(-0.994858 0.101279 0.101279 0.994858 394.921 286.484)" fill="#CCDADE"/>
<circle cx="15.8108" cy="15.8108" r="15.8108" transform="matrix(-0.994858 0.101279 0.101279 0.994858 571.394 97.3613)" fill="#CCDADE"/>
<circle cx="15.8108" cy="15.8108" r="15.8108" transform="matrix(-0.994858 0.101279 0.101279 0.994858 489.837 56.7617)" fill="#CCDADE"/>
<circle cx="15.8108" cy="15.8108" r="15.8108" transform="matrix(-0.994858 0.101279 0.101279 0.994858 422.459 45)" fill="#CCDADE"/>
<circle cx="15.8108" cy="15.8108" r="15.8108" transform="matrix(-0.994858 0.101279 0.101279 0.994858 401.28 163.578)" fill="#CCDADE"/>
<circle cx="15.8108" cy="15.8108" r="15.8108" transform="matrix(-0.994858 0.101279 0.101279 0.994858 365.551 124.838)" fill="#CCDADE"/>
<circle cx="15.8108" cy="15.8108" r="15.8108" transform="matrix(-0.994858 0.101279 0.101279 0.994858 483.082 233.701)" fill="#CCDADE"/>
<circle cx="15.8108" cy="15.8108" r="15.8108" transform="matrix(-0.994858 0.101279 0.101279 0.994858 238.224 75.5938)" fill="#CCDADE"/>
<circle cx="15.8108" cy="15.8108" r="15.8108" transform="matrix(-0.994858 0.101279 0.101279 0.994858 359.337 252.877)" fill="#CCDADE"/>
<circle cx="15.8108" cy="15.8108" r="15.8108" transform="matrix(-0.994858 0.101279 0.101279 0.994858 318.487 200.459)" fill="#CCDADE"/>
<circle cx="15.8108" cy="15.8108" r="15.8108" transform="matrix(-0.994858 0.101279 0.101279 0.994858 207.406 206.945)" fill="#CCDADE"/>
<circle cx="15.8108" cy="15.8108" r="15.8108" transform="matrix(-0.994858 0.101279 0.101279 0.994858 598.854 158.951)" fill="#CCDADE"/>
<circle cx="15.8108" cy="15.8108" r="15.8108" transform="matrix(-0.994858 0.101279 0.101279 0.994858 300.727 353.941)" fill="#CCDADE"/>
<circle cx="15.8108" cy="15.8108" r="15.8108" transform="matrix(-0.994858 0.101279 0.101279 0.994858 352.42 341.344)" fill="#CCDADE"/>
<circle cx="15.8108" cy="15.8108" r="15.8108" transform="matrix(-0.994858 0.101279 0.101279 0.994858 243.48 327.982)" fill="#CCDADE"/>
<circle cx="15.8108" cy="15.8108" r="15.8108" transform="matrix(-0.994858 0.101279 0.101279 0.994858 193.54 373.818)" fill="#CCDADE"/>
<circle cx="15.8108" cy="15.8108" r="15.8108" transform="matrix(-0.994858 0.101279 0.101279 0.994858 73.439 391.748)" fill="#CCDADE"/>
<circle cx="15.8108" cy="15.8108" r="15.8108" transform="matrix(-0.994858 0.101279 0.101279 0.994858 72.7379 224.742)" fill="#CCDADE"/>
<circle cx="15.8108" cy="15.8108" r="15.8108" transform="matrix(-0.994858 0.101279 0.101279 0.994858 42.8107 363.078)" fill="#CCDADE"/>
<circle cx="15.8108" cy="15.8108" r="15.8108" transform="matrix(-0.994858 0.101279 0.101279 0.994858 539.095 36.2617)" fill="#CCDADE"/>
<circle cx="15.8108" cy="15.8108" r="15.8108" transform="matrix(-0.994858 0.101279 0.101279 0.994858 601.461 242.621)" fill="#CCDADE"/>
<circle cx="15.8108" cy="15.8108" r="15.8108" transform="matrix(-0.994858 0.101279 0.101279 0.994858 739.306 339.107)" fill="#CCDADE"/>
<circle cx="95.9802" cy="334.546" r="15.8108" transform="rotate(5.81285 95.9802 334.546)" fill="#7FA3AD"/>
<circle cx="101.395" cy="384.393" r="15.8108" transform="rotate(5.81285 101.395 384.393)" fill="#7FA3AD"/>
<circle cx="146.251" cy="319.141" r="15.8108" transform="rotate(5.81285 146.251 319.141)" fill="#7FA3AD"/>
<circle cx="185.17" cy="273.735" r="15.8108" transform="rotate(5.81285 185.17 273.735)" fill="#7FA3AD"/>
<circle cx="177.873" cy="358.872" r="15.8108" transform="rotate(5.81285 177.873 358.872)" fill="#7FA3AD"/>
<circle cx="268.165" cy="374.163" r="15.8108" transform="rotate(5.81285 268.165 374.163)" fill="#7FA3AD"/>
<circle cx="232.422" cy="284.95" r="15.8108" transform="rotate(5.81285 232.422 284.95)" fill="#7FA3AD"/>
<circle cx="51.9144" cy="398.102" r="15.8108" transform="rotate(5.81285 51.9144 398.102)" fill="#7FA3AD"/>
<circle cx="30.3039" cy="289.141" r="15.8108" transform="rotate(5.81285 30.3039 289.141)" fill="#7FA3AD"/>
<circle cx="250.517" cy="202.024" r="15.8108" transform="rotate(5.81285 250.517 202.024)" fill="#7FA3AD"/>
<circle cx="293.988" cy="280.62" r="15.8108" transform="rotate(5.81285 293.988 280.62)" fill="#7FA3AD"/>
<circle cx="323.597" cy="345.145" r="15.8108" transform="rotate(5.81285 323.597 345.145)" fill="#7FA3AD"/>
<circle cx="361.717" cy="303.815" r="15.8108" transform="rotate(5.81285 361.717 303.815)" fill="#7FA3AD"/>
<circle cx="304.829" cy="148.87" r="15.8108" transform="rotate(5.81285 304.829 148.87)" fill="#7FA3AD"/>
<circle cx="185.243" cy="114.692" r="15.8108" transform="rotate(5.81285 185.243 114.692)" fill="#7FA3AD"/>
<circle cx="211.775" cy="166.292" r="15.8108" transform="rotate(5.81285 211.775 166.292)" fill="#7FA3AD"/>
<circle cx="252.426" cy="127.237" r="15.8108" transform="rotate(5.81285 252.426 127.237)" fill="#7FA3AD"/>
<circle cx="266.801" cy="74.0926" r="15.8108" transform="rotate(5.81285 266.801 74.0926)" fill="#7FA3AD"/>
<circle cx="344.331" cy="29.3309" r="15.8108" transform="rotate(5.81285 344.331 29.3309)" fill="#7FA3AD"/>
<circle cx="327.874" cy="74.6082" r="15.8108" transform="rotate(5.81285 327.874 74.6082)" fill="#7FA3AD"/>
<circle cx="414.331" cy="91.3309" r="15.8108" transform="rotate(5.81285 414.331 91.3309)" fill="#7FA3AD"/>
<circle cx="414.331" cy="17.3309" r="15.8108" transform="rotate(5.81285 414.331 17.3309)" fill="#7FA3AD"/>
<circle cx="355.357" cy="180.909" r="15.8108" transform="rotate(5.81285 355.357 180.909)" fill="#7FA3AD"/>
<circle cx="391.087" cy="142.169" r="15.8108" transform="rotate(5.81285 391.087 142.169)" fill="#7FA3AD"/>
<circle cx="355.331" cy="110.331" r="15.8108" transform="rotate(5.81285 355.331 110.331)" fill="#7FA3AD"/>
<circle cx="470.529" cy="202.415" r="15.8108" transform="rotate(5.81285 470.529 202.415)" fill="#7FA3AD"/>
<circle cx="539.524" cy="149.126" r="15.8108" transform="rotate(5.81285 539.524 149.126)" fill="#7FA3AD"/>
<circle cx="597.873" cy="148.87" r="15.8108" transform="rotate(5.81285 597.873 148.87)" fill="#7FA3AD"/>
<circle cx="653.813" cy="193.37" r="15.8108" transform="rotate(5.81285 653.813 193.37)" fill="#7FA3AD"/>
<circle cx="632.014" cy="247.387" r="15.8108" transform="rotate(5.81285 632.014 247.387)" fill="#7FA3AD"/>
<circle cx="476.605" cy="142.723" r="15.8108" transform="rotate(5.81285 476.605 142.723)" fill="#7FA3AD"/>
<circle cx="518.413" cy="92.9246" r="15.8108" transform="rotate(5.81285 518.413 92.9246)" fill="#7FA3AD"/>
<circle cx="584.089" cy="92.9246" r="15.8108" transform="rotate(5.81285 584.089 92.9246)" fill="#7FA3AD"/>
<circle cx="466.795" cy="78.9695" r="15.8108" transform="rotate(5.81285 466.795 78.9695)" fill="#7FA3AD"/>
<circle cx="463.331" cy="32.3309" r="15.8108" transform="rotate(5.81285 463.331 32.3309)" fill="#7FA3AD"/>
<circle cx="400.403" cy="210.761" r="15.8108" transform="rotate(5.81285 400.403 210.761)" fill="#7FA3AD"/>
<circle cx="397.301" cy="270.208" r="15.8108" transform="rotate(5.81285 397.301 270.208)" fill="#7FA3AD"/>
<circle cx="157.784" cy="176.282" r="15.8108" transform="rotate(5.81285 157.784 176.282)" fill="#7FA3AD"/>
<circle cx="435.331" cy="158.331" r="15.8108" transform="rotate(5.81285 435.331 158.331)" fill="#7FA3AD"/>
<circle cx="431.663" cy="305.231" r="15.8108" transform="rotate(5.81285 431.663 305.231)" fill="#7FA3AD"/>
<circle cx="455.91" cy="371.272" r="15.8108" transform="rotate(5.81285 455.91 371.272)" fill="#7FA3AD"/>
<circle cx="404.217" cy="358.675" r="15.8108" transform="rotate(5.81285 404.217 358.675)" fill="#7FA3AD"/>
<circle cx="511.961" cy="293.03" r="15.8108" transform="rotate(5.81285 511.961 293.03)" fill="#7FA3AD"/>
<circle cx="513.158" cy="345.313" r="15.8108" transform="rotate(5.81285 513.158 345.313)" fill="#7FA3AD"/>
<circle cx="538.258" cy="225.612" r="15.8108" transform="rotate(5.81285 538.258 225.612)" fill="#7FA3AD"/>
<circle cx="611.432" cy="297.452" r="15.8108" transform="rotate(5.81285 611.432 297.452)" fill="#7FA3AD"/>
<circle cx="563.097" cy="391.149" r="15.8108" transform="rotate(5.81285 563.097 391.149)" fill="#7FA3AD"/>
<circle cx="605.684" cy="353.917" r="15.8108" transform="rotate(5.81285 605.684 353.917)" fill="#7FA3AD"/>
<circle cx="655.039" cy="365.462" r="15.8108" transform="rotate(5.81285 655.039 365.462)" fill="#7FA3AD"/>
<circle cx="637.22" cy="404.397" r="15.8108" transform="rotate(5.81285 637.22 404.397)" fill="#7FA3AD"/>
<circle cx="683.198" cy="409.079" r="15.8108" transform="rotate(5.81285 683.198 409.079)" fill="#7FA3AD"/>
<circle cx="652.445" cy="326.891" r="15.8108" transform="rotate(5.81285 652.445 326.891)" fill="#7FA3AD"/>
<circle cx="663.497" cy="282.376" r="15.8108" transform="rotate(5.81285 663.497 282.376)" fill="#7FA3AD"/>
<circle cx="707.862" cy="286.893" r="15.8108" transform="rotate(5.81285 707.862 286.893)" fill="#7FA3AD"/>
<circle cx="683.9" cy="242.073" r="15.8108" transform="rotate(5.81285 683.9 242.073)" fill="#7FA3AD"/>
<circle cx="713.827" cy="380.409" r="15.8108" transform="rotate(5.81285 713.827 380.409)" fill="#7FA3AD"/>
<circle cx="217.543" cy="53.5926" r="15.8108" transform="rotate(5.81285 217.543 53.5926)" fill="#7FA3AD"/>
<circle cx="132.467" cy="252.655" r="15.8108" transform="rotate(5.81285 132.467 252.655)" fill="#7FA3AD"/>
<circle cx="82.1963" cy="285.897" r="15.8108" transform="rotate(5.81285 82.1963 285.897)" fill="#7FA3AD"/>
<circle cx="17.3309" cy="356.438" r="15.8108" transform="rotate(5.81285 17.3309 356.438)" fill="#7FA3AD"/>
</svg>
