<svg width="16" height="14" viewBox="0 0 16 14" fill="none" xmlns="http://www.w3.org/2000/svg">
<path fill-rule="evenodd" clip-rule="evenodd" d="M0.923828 0.222857C1.22173 -0.0742857 1.70481 -0.0742857 2.00195 0.222857L3.83203 2.05391L5.41992 3.6418L6.49707 4.71993L9.71094 7.93184L10.7881 9.00899L12.416 10.6379L13.8545 12.0764C14.1515 12.3735 14.1516 12.8564 13.8545 13.1535C13.5566 13.4513 13.0745 13.4512 12.7773 13.1535L11.042 11.4182C10.0455 11.8783 9.00415 12.1438 8 12.1438C4.84428 12.1438 1.31742 9.54062 0 6.42989C0.546206 5.14017 1.47559 3.94083 2.59766 2.97481L0.923828 1.30098C0.626227 1.00308 0.626083 0.520673 0.923828 0.222857ZM4.51855 4.89473C4.31055 5.36483 4.19043 5.88284 4.19043 6.42989C4.19061 8.53412 5.89649 10.2395 8 10.2395C8.54704 10.2395 9.0643 10.1193 9.53516 9.91133L8.30762 8.68379C8.20634 8.69827 8.10509 8.71504 8 8.71504C6.73763 8.71504 5.71404 7.69221 5.71387 6.42989C5.71387 6.32475 5.73064 6.2236 5.74512 6.12227L4.51855 4.89473ZM8 0.715045C11.1558 0.715087 14.6827 3.31906 16 6.42989C15.3959 7.85675 14.3232 9.17161 13.0381 10.1818L11.248 8.39278C11.5993 7.81985 11.8096 7.15138 11.8096 6.42989C11.8096 4.32553 10.1043 2.62036 8 2.62032C7.27848 2.62032 6.61006 2.8306 6.03711 3.18184L4.51758 1.66133C5.64431 1.06795 6.84663 0.715045 8 0.715045ZM8 4.14376C9.26248 4.14376 10.2861 5.16741 10.2861 6.42989C10.2861 6.72691 10.2254 7.00763 10.1211 7.26583L7.16406 4.30879C7.42235 4.20441 7.70362 4.14376 8 4.14376Z" fill="#909090"/>
</svg>
