<svg width="40" height="40" viewBox="0 0 40 40" fill="none" xmlns="http://www.w3.org/2000/svg">
<rect x="0.5" y="0.5" width="39" height="39" rx="19.5" stroke="#B4B4B4"/>
<g clip-path="url(#clip0_4549_12867)">
<path d="M26.8571 21.1429H21.1429V26.8571C21.1429 27.1602 21.0224 27.4509 20.8081 27.6653C20.5938 27.8796 20.3031 28 20 28C19.6969 28 19.4062 27.8796 19.1919 27.6653C18.9776 27.4509 18.8571 27.1602 18.8571 26.8571V21.1429H13.1429C12.8398 21.1429 12.5491 21.0224 12.3347 20.8081C12.1204 20.5938 12 20.3031 12 20C12 19.6969 12.1204 19.4062 12.3347 19.1919C12.5491 18.9776 12.8398 18.8571 13.1429 18.8571H18.8571V13.1429C18.8571 12.8398 18.9776 12.5491 19.1919 12.3347C19.4062 12.1204 19.6969 12 20 12C20.3031 12 20.5938 12.1204 20.8081 12.3347C21.0224 12.5491 21.1429 12.8398 21.1429 13.1429V18.8571H26.8571C27.1602 18.8571 27.4509 18.9776 27.6653 19.1919C27.8796 19.4062 28 19.6969 28 20C28 20.3031 27.8796 20.5938 27.6653 20.8081C27.4509 21.0224 27.1602 21.1429 26.8571 21.1429Z" fill="#B4B4B4"/>
</g>
<defs>
<clipPath id="clip0_4549_12867">
<rect width="16" height="16" fill="white" transform="translate(12 12)"/>
</clipPath>
</defs>
</svg>
