<svg width="16" height="17" viewBox="0 0 16 17" fill="none" xmlns="http://www.w3.org/2000/svg">
<path d="M1 16.4932C0.447715 16.4932 0 16.0454 0 15.4932C0 14.9409 0.447715 14.4932 1 14.4932H15C15.5523 14.4932 16 14.9409 16 15.4932C16 16.0454 15.5523 16.4932 15 16.4932H1Z" fill="#2C7D7D"/>
<path d="M10.9723 2.02625C10.8128 1.8682 10.5538 1.8682 10.394 2.02625L2.70319 9.62597L1.3145 12.4584C1.19174 12.8392 1.06108 13.0273 1.35516 13.3181C1.64924 13.6088 1.8395 13.4796 2.22477 13.3583L5.08227 11.978L12.7809 4.38567C12.9408 4.22801 12.9408 3.97201 12.7809 3.81396L10.9723 2.02625Z" fill="#2C7D7D"/>
<path d="M11.7108 0.696222C11.5743 0.831246 11.5743 1.05056 11.7108 1.18559L13.6028 3.05564C13.7394 3.19105 13.9612 3.19105 14.0978 3.05564L14.44 2.74176C14.9551 2.2321 14.9551 1.40634 14.44 0.896683L13.9189 0.381951C13.4038 -0.127317 12.5681 -0.127317 12.053 0.381951L11.7108 0.696222Z" fill="#2C7D7D"/>
</svg>
